<svg width="300" height="300" viewBox="0 0 300 300" fill="none" xmlns="http://www.w3.org/2000/svg">
<g clip-path="url(#clip0_12279_23172)">
<path d="M146.812 0H154.667C169.351 0 183.434 5.65475 193.817 15.7203C204.2 25.7858 210.033 39.4376 210.033 53.6724V68.9489C210.033 83.1837 204.2 96.8355 193.817 106.901C183.434 116.967 169.351 122.621 154.667 122.621H146.812V0V0Z" fill="#D9822F"/>
<path d="M55.5117 31.4878L61.8258 26.9585C73.6295 18.4914 88.4196 14.9166 102.942 17.0206C117.465 19.1247 130.53 26.7352 139.265 38.178L148.638 50.4581C152.97 56.1222 156.107 62.5581 157.872 69.3981C159.637 76.2381 159.994 83.3483 158.924 90.3222C157.853 97.2962 155.376 103.997 151.633 110.043C147.89 116.088 142.955 121.359 137.11 125.555L130.796 130.085L55.5275 31.4765L55.5117 31.4878Z" fill="#AC73E6"/>
<path d="M1.43359 109.497L3.73008 102.215C8.02324 88.6025 17.7188 77.2005 30.684 70.5177C43.6491 63.8348 58.8216 62.4187 72.8639 66.5805L87.9338 71.047C101.976 75.2088 113.738 84.6078 120.632 97.1763C127.525 109.745 128.986 124.454 124.693 138.066L122.397 145.348L1.43359 109.497Z" fill="#66B7F1"/>
<path d="M6.3125 202.956L3.69055 195.778C-1.21104 182.36 -0.413314 167.604 5.90827 154.756C12.2299 141.907 23.5574 132.02 37.3991 127.268L52.2537 122.169C66.0913 117.416 81.3096 118.185 94.5622 124.307C107.815 130.43 118.017 141.404 122.925 154.816L125.547 161.994L6.30266 202.929L6.3125 202.956Z" fill="#FAE7B9"/>
<path d="M66.957 276.25L60.4452 271.992C48.2717 264.032 39.8586 251.71 37.0568 237.737C34.255 223.764 37.294 209.284 45.5051 197.482L54.3172 184.818C62.5286 173.039 75.2254 164.899 89.6209 162.185C104.016 159.471 118.934 162.405 131.101 170.342L137.613 174.6L66.9081 276.218L66.957 276.25Z" fill="#5CB176"/>
<path d="M160.781 299.616L152.934 299.948C138.264 300.569 123.941 295.515 113.114 285.898C102.288 276.281 95.8466 262.889 95.2061 248.668L94.5187 233.406C93.8782 219.184 99.0914 205.299 109.012 194.804C118.932 184.309 132.747 178.064 147.417 177.443L155.264 177.111L160.781 299.616Z" fill="#D9822F"/>
<path d="M250.586 264.283L244.482 269.075C233.07 278.033 218.455 282.23 203.852 280.742C189.248 279.254 175.852 272.203 166.612 261.141L156.694 249.269C147.454 238.206 143.124 224.038 144.659 209.881C146.194 195.724 153.467 182.738 164.879 173.78L170.983 168.988L250.586 264.283Z" fill="#AC73E6"/>
<path d="M228.168 20.27L234.865 24.2486C247.385 31.6862 256.345 43.6408 259.773 57.4823C263.201 71.3237 260.816 85.9183 253.144 98.0555L244.91 111.081C237.238 123.218 224.906 131.904 210.628 135.227C196.35 138.55 181.294 136.238 168.774 128.8L162.077 124.822L228.168 20.27Z" fill="#5CB176"/>
<path d="M291.398 80.0645L294.341 87.1245C299.842 100.323 299.709 115.099 293.971 128.202C288.234 141.305 277.362 151.662 263.747 156.995L249.1 162.732C235.485 168.064 220.243 167.935 206.726 162.373C193.21 156.811 182.526 146.272 177.025 133.073L174.083 126.013L291.398 80.0645Z" fill="#FAE7B9"/>
<path d="M300.004 173.64L298.037 181.012C294.361 194.793 285.187 206.595 272.535 213.819C259.883 221.044 244.789 223.101 230.573 219.536L215.316 215.712C201.1 212.147 188.926 203.255 181.474 190.989C174.021 178.724 171.9 164.092 175.576 150.31L177.543 142.938L300.004 173.64Z" fill="#66B7F1"/>
</g>
<defs>
<clipPath id="clip0_12279_23172">
<rect width="300" height="300" fill="white"/>
</clipPath>
</defs>
</svg>
