<svg width="121" height="32" viewBox="0 0 121 32" fill="none" xmlns="http://www.w3.org/2000/svg">
<path d="M42.56 11.2H49.84V13.762H48.804V12.236H46.774V19.964H48.314V21H44.072V19.964H45.612V12.236H43.596V13.762H42.56V11.2ZM51.8645 21V20.062H54.3005V14.938H51.8645V14H55.4205V20.062H57.8005V21H51.8645ZM53.9225 12.012C53.9225 11.76 54.0065 11.5453 54.1745 11.368C54.3425 11.1813 54.5572 11.088 54.8185 11.088C55.0892 11.088 55.3132 11.1813 55.4905 11.368C55.6772 11.5453 55.7705 11.76 55.7705 12.012C55.7705 12.2547 55.6772 12.46 55.4905 12.628C55.3132 12.796 55.0892 12.88 54.8185 12.88C54.5572 12.88 54.3425 12.796 54.1745 12.628C54.0065 12.46 53.9225 12.2547 53.9225 12.012ZM62.4571 21V16.338C62.4571 16.142 62.4477 15.9553 62.4291 15.778C62.4197 15.5913 62.3871 15.428 62.3311 15.288C62.2844 15.1387 62.2097 15.022 62.1071 14.938C62.0137 14.854 61.8877 14.812 61.7291 14.812C61.4117 14.812 61.1411 14.9427 60.9171 15.204C60.7024 15.4653 60.5391 15.792 60.4271 16.184V21H59.3631V14H60.0911L60.3011 14.854H60.3571C60.4504 14.714 60.5391 14.5833 60.6231 14.462C60.7164 14.3313 60.8191 14.2193 60.9311 14.126C61.0524 14.0327 61.1924 13.9627 61.3511 13.916C61.5097 13.86 61.7104 13.832 61.9531 13.832C62.0931 13.832 62.2377 13.8553 62.3871 13.902C62.5364 13.9393 62.6717 14.0047 62.7931 14.098C62.9237 14.182 63.0357 14.2987 63.1291 14.448C63.2224 14.5973 63.2831 14.7793 63.3111 14.994C63.5257 14.63 63.7637 14.3453 64.0251 14.14C64.2957 13.9347 64.6644 13.832 65.1311 13.832C65.4391 13.832 65.6864 13.8833 65.8731 13.986C66.0691 14.0887 66.2184 14.238 66.3211 14.434C66.4331 14.6207 66.5077 14.8493 66.5451 15.12C66.5917 15.3813 66.6151 15.6753 66.6151 16.002V21H65.5511V16.24C65.5511 16.044 65.5417 15.862 65.5231 15.694C65.5044 15.5167 65.4671 15.3627 65.4111 15.232C65.3644 15.1013 65.2944 14.9987 65.2011 14.924C65.1171 14.8493 65.0004 14.812 64.8511 14.812C64.5244 14.812 64.2491 14.9427 64.0251 15.204C63.8011 15.4653 63.6331 15.8387 63.5211 16.324V21H62.4571ZM74.5896 20.118C74.4216 20.2673 74.2209 20.4073 73.9876 20.538C73.7636 20.6687 73.5163 20.7807 73.2456 20.874C72.9749 20.9673 72.6903 21.0373 72.3916 21.084C72.1023 21.14 71.8083 21.168 71.5096 21.168C70.9496 21.168 70.4549 21.084 70.0256 20.916C69.5963 20.7387 69.2369 20.4913 68.9476 20.174C68.6583 19.8473 68.4389 19.46 68.2896 19.012C68.1403 18.564 68.0656 18.06 68.0656 17.5C68.0656 16.912 68.1449 16.3893 68.3036 15.932C68.4716 15.4747 68.7096 15.092 69.0176 14.784C69.3256 14.476 69.6989 14.2427 70.1376 14.084C70.5763 13.916 71.0663 13.832 71.6076 13.832C71.9996 13.832 72.3869 13.8833 72.7696 13.986C73.1523 14.0887 73.4883 14.2847 73.7776 14.574C74.0763 14.854 74.3049 15.246 74.4636 15.75C74.6223 16.2447 74.6783 16.8887 74.6316 17.682H69.2136C69.2136 18.522 69.4376 19.152 69.8856 19.572C70.3429 19.9827 70.9496 20.188 71.7056 20.188C71.9576 20.188 72.2049 20.16 72.4476 20.104C72.6996 20.0387 72.9376 19.964 73.1616 19.88C73.3856 19.796 73.5816 19.7027 73.7496 19.6C73.9269 19.4973 74.0623 19.404 74.1556 19.32L74.5896 20.118ZM71.6356 14.756C71.3276 14.756 71.0336 14.7887 70.7536 14.854C70.4829 14.9193 70.2403 15.0313 70.0256 15.19C69.8203 15.3393 69.6476 15.54 69.5076 15.792C69.3769 16.0347 69.2929 16.338 69.2556 16.702H73.6096C73.5629 16.086 73.3623 15.61 73.0076 15.274C72.6623 14.9287 72.2049 14.756 71.6356 14.756ZM77.6781 19.614C77.9581 19.7633 78.2708 19.8893 78.6161 19.992C78.9708 20.0853 79.3255 20.132 79.6801 20.132C79.9881 20.132 80.2775 20.104 80.5481 20.048C80.8188 19.9827 81.0521 19.8847 81.2481 19.754C81.4535 19.614 81.6121 19.4413 81.7241 19.236C81.8455 19.0307 81.9061 18.788 81.9061 18.508C81.9061 18.1253 81.7755 17.8127 81.5141 17.57C81.2621 17.3273 80.9448 17.1127 80.5621 16.926C80.1795 16.7393 79.7641 16.5573 79.3161 16.38C78.8681 16.2027 78.4528 15.9927 78.0701 15.75C77.6875 15.5073 77.3655 15.2133 77.1041 14.868C76.8521 14.5133 76.7261 14.0653 76.7261 13.524C76.7261 13.1413 76.8008 12.796 76.9501 12.488C77.1088 12.18 77.3281 11.9187 77.6081 11.704C77.8881 11.4893 78.2241 11.326 78.6161 11.214C79.0175 11.0927 79.4608 11.032 79.9461 11.032C80.5061 11.032 81.0148 11.074 81.4721 11.158C81.9295 11.2327 82.2935 11.3353 82.5641 11.466L82.5921 11.452V11.48H82.6061L82.5921 11.522V13.762H81.5561V12.264C81.3228 12.208 81.0661 12.1613 80.7861 12.124C80.5061 12.0867 80.2075 12.068 79.8901 12.068C79.5821 12.068 79.3021 12.1053 79.0501 12.18C78.8075 12.2547 78.5975 12.3573 78.4201 12.488C78.2521 12.6093 78.1215 12.754 78.0281 12.922C77.9348 13.09 77.8881 13.2673 77.8881 13.454C77.8881 13.818 78.0141 14.1213 78.2661 14.364C78.5275 14.6067 78.8495 14.826 79.2321 15.022C79.6148 15.2087 80.0301 15.3953 80.4781 15.582C80.9261 15.7687 81.3415 15.988 81.7241 16.24C82.1068 16.4827 82.4241 16.7767 82.6761 17.122C82.9375 17.4673 83.0681 17.8967 83.0681 18.41C83.0681 18.83 82.9888 19.208 82.8301 19.544C82.6808 19.88 82.4615 20.1693 82.1721 20.412C81.8921 20.6547 81.5421 20.8413 81.1221 20.972C80.7115 21.1027 80.2448 21.168 79.7221 21.168C79.3675 21.168 79.0315 21.14 78.7141 21.084C78.3968 21.028 78.1028 20.958 77.8321 20.874C77.5708 20.79 77.3328 20.7013 77.1181 20.608C76.9128 20.5147 76.7495 20.4353 76.6281 20.37L76.6421 20.328V18.06H77.6781V19.614ZM84.0287 11.2H86.2127V14.868H86.2827C86.572 14.5413 86.908 14.2893 87.2907 14.112C87.6733 13.9253 88.1493 13.832 88.7187 13.832C89.1667 13.832 89.554 13.8787 89.8807 13.972C90.2167 14.0653 90.4873 14.2287 90.6927 14.462C90.9073 14.6953 91.066 15.0173 91.1687 15.428C91.2713 15.8293 91.3227 16.3427 91.3227 16.968V21H90.2307V17.178C90.2307 16.7767 90.2073 16.4267 90.1607 16.128C90.114 15.8293 90.0207 15.582 89.8807 15.386C89.75 15.1807 89.568 15.0267 89.3347 14.924C89.1013 14.8213 88.8027 14.77 88.4387 14.77C88.1867 14.77 87.9393 14.8167 87.6967 14.91C87.454 14.994 87.23 15.1153 87.0247 15.274C86.8287 15.4233 86.656 15.61 86.5067 15.834C86.3667 16.0487 86.2687 16.2867 86.2127 16.548V21H85.1347V12.138H84.0287V11.2ZM93.8792 14.546C94.2805 14.3127 94.7332 14.1447 95.2372 14.042C95.7412 13.9393 96.2359 13.888 96.7212 13.888C97.1972 13.888 97.5845 13.9627 97.8832 14.112C98.1912 14.2613 98.4292 14.4573 98.5972 14.7C98.7745 14.9333 98.8912 15.204 98.9472 15.512C99.0125 15.8107 99.0452 16.114 99.0452 16.422C99.0452 16.7767 99.0359 17.1547 99.0172 17.556C98.9985 17.9573 98.9845 18.3587 98.9752 18.76C98.9752 19.2267 99.0032 19.67 99.0592 20.09H99.9972V21H98.1352L98.0092 19.95H97.9392C97.8832 20.034 97.7992 20.1413 97.6872 20.272C97.5752 20.4027 97.4259 20.5333 97.2392 20.664C97.0619 20.7853 96.8425 20.8927 96.5812 20.986C96.3199 21.0793 96.0119 21.126 95.6572 21.126C94.9665 21.126 94.4205 20.9487 94.0192 20.594C93.6179 20.2393 93.4172 19.754 93.4172 19.138C93.4172 18.662 93.5199 18.2653 93.7252 17.948C93.9399 17.6307 94.2432 17.388 94.6352 17.22C95.0272 17.052 95.4985 16.954 96.0492 16.926C96.6092 16.898 97.2345 16.9353 97.9252 17.038C97.9719 16.6087 97.9765 16.254 97.9392 15.974C97.9112 15.6847 97.8365 15.456 97.7152 15.288C97.6032 15.12 97.4399 15.0033 97.2252 14.938C97.0199 14.8633 96.7632 14.826 96.4552 14.826C96.0352 14.826 95.6339 14.8867 95.2512 15.008C94.8685 15.12 94.5279 15.2367 94.2292 15.358L93.8792 14.546ZM95.9372 20.188C96.1985 20.188 96.4412 20.146 96.6652 20.062C96.8892 19.978 97.0852 19.8707 97.2532 19.74C97.4212 19.6093 97.5612 19.4693 97.6732 19.32C97.7852 19.1613 97.8692 19.012 97.9252 18.872V17.892C97.4399 17.808 96.9919 17.766 96.5812 17.766C96.1705 17.766 95.8159 17.8127 95.5172 17.906C95.2185 17.99 94.9852 18.1253 94.8172 18.312C94.6492 18.4987 94.5652 18.7413 94.5652 19.04C94.5652 19.348 94.6679 19.6187 94.8732 19.852C95.0879 20.076 95.4425 20.188 95.9372 20.188ZM101.686 21V20.062H103.576V14.938H101.686V14H104.304L104.528 14.91H104.598C104.915 14.6207 105.27 14.3733 105.662 14.168C106.054 13.9627 106.52 13.86 107.062 13.86C107.379 13.86 107.631 13.9207 107.818 14.042C108.014 14.1633 108.163 14.3407 108.266 14.574C108.378 14.8073 108.452 15.092 108.49 15.428C108.527 15.7547 108.546 16.128 108.546 16.548L107.566 16.562C107.566 15.9647 107.505 15.526 107.384 15.246C107.272 14.966 107.062 14.826 106.754 14.826C106.464 14.826 106.203 14.868 105.97 14.952C105.736 15.036 105.531 15.1387 105.354 15.26C105.186 15.3813 105.041 15.5027 104.92 15.624C104.798 15.7453 104.71 15.848 104.654 15.932V20.062H107.342V21H101.686ZM116.562 20.118C116.394 20.2673 116.194 20.4073 115.96 20.538C115.736 20.6687 115.489 20.7807 115.218 20.874C114.948 20.9673 114.663 21.0373 114.364 21.084C114.075 21.14 113.781 21.168 113.482 21.168C112.922 21.168 112.428 21.084 111.998 20.916C111.569 20.7387 111.21 20.4913 110.92 20.174C110.631 19.8473 110.412 19.46 110.262 19.012C110.113 18.564 110.038 18.06 110.038 17.5C110.038 16.912 110.118 16.3893 110.276 15.932C110.444 15.4747 110.682 15.092 110.99 14.784C111.298 14.476 111.672 14.2427 112.11 14.084C112.549 13.916 113.039 13.832 113.58 13.832C113.972 13.832 114.36 13.8833 114.742 13.986C115.125 14.0887 115.461 14.2847 115.75 14.574C116.049 14.854 116.278 15.246 116.436 15.75C116.595 16.2447 116.651 16.8887 116.604 17.682H111.186C111.186 18.522 111.41 19.152 111.858 19.572C112.316 19.9827 112.922 20.188 113.678 20.188C113.93 20.188 114.178 20.16 114.42 20.104C114.672 20.0387 114.91 19.964 115.134 19.88C115.358 19.796 115.554 19.7027 115.722 19.6C115.9 19.4973 116.035 19.404 116.128 19.32L116.562 20.118ZM113.608 14.756C113.3 14.756 113.006 14.7887 112.726 14.854C112.456 14.9193 112.213 15.0313 111.998 15.19C111.793 15.3393 111.62 15.54 111.48 15.792C111.35 16.0347 111.266 16.338 111.228 16.702H115.582C115.536 16.086 115.335 15.61 114.98 15.274C114.635 14.9287 114.178 14.756 113.608 14.756Z" fill="#4A4A6A"/>
<g clip-path="url(#clip0_12279_23195)">
<path d="M15.6602 0H16.498C18.0643 0 19.5664 0.603174 20.6739 1.67683C21.7815 2.75049 22.4037 4.20668 22.4037 5.72505V7.35455C22.4037 8.87293 21.7815 10.3291 20.6739 11.4028C19.5664 12.4764 18.0643 13.0796 16.498 13.0796H15.6602V0V0Z" fill="#D9822F"/>
<path d="M5.92188 3.35889L6.59537 2.87577C7.85444 1.9726 9.43204 1.59129 10.9811 1.81572C12.5302 2.04015 13.9239 2.85195 14.8555 4.07251L15.8554 5.38238C16.3174 5.98655 16.6521 6.67305 16.8403 7.40265C17.0286 8.13226 17.0667 8.89067 16.9525 9.63456C16.8383 10.3784 16.574 11.0932 16.1748 11.7381C15.7756 12.3829 15.2492 12.9452 14.6257 13.3928L13.9522 13.8759L5.92356 3.35768L5.92188 3.35889Z" fill="#AC73E6"/>
<path d="M0.152344 11.6797L0.397303 10.903C0.855239 9.45094 1.88944 8.23472 3.27238 7.52189C4.65533 6.80905 6.27373 6.65799 7.77158 7.10193L9.37904 7.57834C10.8769 8.02227 12.1315 9.02483 12.8668 10.3655C13.6021 11.7061 13.7579 13.275 13.3 14.7271L13.0551 15.5038L0.152344 11.6797Z" fill="#66B7F1"/>
<path d="M0.673828 21.6484L0.394153 20.8828C-0.128683 19.4515 -0.0435923 17.8775 0.63071 16.5071C1.30501 15.1366 2.51329 14.0819 3.98973 13.5751L5.57422 13.0311C7.05023 12.5241 8.67352 12.6062 10.0871 13.2592C11.5008 13.9123 12.589 15.0829 13.1125 16.5135L13.3921 17.2792L0.672778 21.6456L0.673828 21.6484Z" fill="#FAE7B9"/>
<path d="M7.14258 29.4668L6.44798 29.0126C5.14948 28.1635 4.25208 26.8492 3.95322 25.3587C3.65436 23.8682 3.97852 22.3237 4.85438 21.0649L5.79433 19.714C6.67021 18.4576 8.02453 17.5893 9.56006 17.2999C11.0956 17.0104 12.6868 17.3233 13.9846 18.1699L14.6792 18.6241L7.13736 29.4634L7.14258 29.4668Z" fill="#5CB176"/>
<path d="M17.1504 31.959L16.3134 31.9944C14.7486 32.0606 13.2207 31.5216 12.0659 30.4958C10.9111 29.47 10.224 28.0415 10.1557 26.5245L10.0824 24.8966C10.0141 23.3796 10.5701 21.8985 11.6283 20.7791C12.6865 19.6596 14.16 18.9935 15.7248 18.9273L16.5619 18.8918L17.1504 31.959Z" fill="#D9822F"/>
<path d="M26.7285 28.1899L26.0774 28.7011C24.8602 29.6566 23.3012 30.1043 21.7435 29.9456C20.1858 29.7869 18.7569 29.0348 17.7712 27.8548L16.7134 26.5884C15.7277 25.4084 15.266 23.8972 15.4297 22.3871C15.5934 20.877 16.3692 19.4919 17.5864 18.5363L18.2376 18.0252L26.7285 28.1899Z" fill="#AC73E6"/>
<path d="M24.3379 2.16211L25.0523 2.58649C26.3877 3.37984 27.3434 4.65499 27.7091 6.13141C28.0747 7.60784 27.8203 9.16459 27.002 10.4592L26.1237 11.8486C25.3053 13.1432 23.9899 14.0697 22.4669 14.4241C20.9439 14.7786 19.338 14.532 18.0026 13.7387L17.2882 13.3143L24.3379 2.16211Z" fill="#5CB176"/>
<path d="M31.082 8.54004L31.3959 9.29311C31.9826 10.7009 31.9684 12.277 31.3564 13.6747C30.7444 15.0724 29.5848 16.1771 28.1326 16.7459L26.5702 17.3579C25.1179 17.9267 23.4921 17.9129 22.0503 17.3196C20.6085 16.7264 19.4689 15.6022 18.8822 14.1943L18.5683 13.4413L31.082 8.54004Z" fill="#FAE7B9"/>
<path d="M32 18.5215L31.7902 19.3078C31.3981 20.7778 30.4196 22.0366 29.07 22.8073C27.7205 23.5779 26.1104 23.7973 24.594 23.4171L22.9666 23.0091C21.4502 22.6289 20.1517 21.6804 19.3568 20.3721C18.5618 19.0638 18.3356 17.503 18.7277 16.033L18.9375 15.2466L32 18.5215Z" fill="#66B7F1"/>
</g>
<defs>
<clipPath id="clip0_12279_23195">
<rect width="32" height="32" fill="white"/>
</clipPath>
</defs>
</svg>
