<svg width="24" height="24" viewBox="0 0 24 24" fill="none" xmlns="http://www.w3.org/2000/svg">
<circle cx="12" cy="12" r="12" fill="#DCDCE4"/>
<path fill-rule="evenodd" clip-rule="evenodd" d="M15.5 12.5556C15.5 12.4352 15.4567 12.331 15.3701 12.2431L12.3076 9.13194C12.221 9.04398 12.1185 9 12 9C11.8815 9 11.779 9.04398 11.6924 9.13194L8.62988 12.2431C8.54329 12.331 8.5 12.4352 8.5 12.5556C8.5 12.6759 8.54329 12.7801 8.62988 12.8681C8.71647 12.956 8.81901 13 8.9375 13H15.0625C15.181 13 15.2835 12.956 15.3701 12.8681C15.4567 12.7801 15.5 12.6759 15.5 12.5556Z" fill="#8E8EA9"/>
</svg>
