<svg width="24" height="24" viewBox="0 0 24 24" fill="none" xmlns="http://www.w3.org/2000/svg">
<circle cx="12" cy="12" r="12" fill="#DCDCE4"/>
<path fill-rule="evenodd" clip-rule="evenodd" d="M8.5 11.4444C8.5 11.5648 8.54329 11.669 8.62988 11.7569L11.6924 14.8681C11.779 14.956 11.8815 15 12 15C12.1185 15 12.221 14.956 12.3076 14.8681L15.3701 11.7569C15.4567 11.669 15.5 11.5648 15.5 11.4444C15.5 11.3241 15.4567 11.2199 15.3701 11.1319C15.2835 11.044 15.181 11 15.0625 11H8.9375C8.81901 11 8.71647 11.044 8.62988 11.1319C8.54329 11.2199 8.5 11.3241 8.5 11.4444Z" fill="#666687"/>
</svg>
